<svg width="100%" height="100%" viewBox="0 0 103 103" fill="none" xmlns="http://www.w3.org/2000/svg">
<g id="Group 46">
<path id="Ellipse 26" d="M102.297 48.8799C102.297 78.2657 78.4765 102.088 49.0928 102.088C19.709 102.088 0 80.204 0 50.8183C3.38571 34.1352 16.0638 48.4276 42.805 31.7132C69.5463 14.9988 102.297 19.4942 102.297 48.8799Z" fill="#5AC8FA"/>
<path id="Vector 64" d="M28.135 14.4986C28.3285 12.7574 28.1335 3.61608 32.9702 1.68125C37.8069 -0.253583 71.4238 2.64872 80.3717 1.68123C89.3197 0.713725 80.3717 14.4986 80.3717 14.4986M28.135 14.4986C48.7974 15.5496 60.5251 16.711 80.3717 14.4986M28.135 14.4986C28.135 14.4986 21.362 14.4986 12.656 27.074M80.3717 14.4986C71.7488 19.5677 68.7067 22.3256 66.8288 27.074M80.3717 14.4986C82.7861 19.9099 88.5926 21.0283 88.5926 27.074M12.656 27.074C32.0029 36.7477 66.8288 27.074 66.8288 27.074M12.656 27.074C12.656 27.074 -1.12853 81.2453 12.656 89.9515C26.4405 98.6577 45.0634 95.7795 66.8288 89.9515M66.8288 27.074C66.8288 27.074 87.8671 35.0548 88.5926 27.074M66.8288 27.074C62.7175 44.0028 66.8288 65.3963 66.8288 89.9515M88.5926 27.074C88.5926 27.074 95.6057 83.4222 88.5926 88.2588C81.5795 93.0954 74.8093 85.5986 66.8288 89.9515" stroke="white"/>
</g>
</svg>
