<svg width="46" height="46" viewBox="0 0 46 46" fill="none" xmlns="http://www.w3.org/2000/svg">
<circle cx="23" cy="23" r="23" fill="#3FCC7C"/>
<path d="M18 33H28C28.2406 33 28.4732 32.9133 28.6551 32.7557C28.8369 32.5981 28.9558 32.3802 28.99 32.142L30.867 19H32V17H30.618L28.894 13.553C28.8112 13.3868 28.6836 13.2469 28.5257 13.1493C28.3678 13.0516 28.1857 12.9999 28 13H18C17.621 13 17.275 13.214 17.105 13.553L15.382 17H14V19H15.133L17.01 32.142C17.0442 32.3802 17.1631 32.5981 17.3449 32.7557C17.5268 32.9133 17.7594 33 18 33ZM28.418 22H17.582L17.153 19H28.846L28.418 22ZM18.867 31L18.438 28H27.561L27.132 31H18.867ZM18.618 15H27.382L28.382 17H17.618L18.618 15Z" fill="#E5E5E5"/>
</svg>
