<svg width="128" height="132" viewBox="0 0 128 132" fill="none" xmlns="http://www.w3.org/2000/svg">
<g id="Group 47">
<ellipse id="Ellipse 23" cx="61.7532" cy="64.4287" rx="47.9613" ry="38.6984" transform="rotate(79.416 61.7532 64.4287)" fill="#3FCC7C"/>
<path id="Vector 50" d="M60.2673 15.1225C81.3572 14.474 100.175 27.4421 102.855 48.3711C105.611 69.8919 94.3195 111.79 67.5058 113.715C40.6921 115.641 35.9853 101.775 28.0802 83.1345C17.8843 59.0925 34.165 15.9251 60.2673 15.1225Z" stroke="white"/>
<path id="Vector 60" d="M68.4448 75.3699C65.149 64.7001 57.2246 49.4025 57.2246 49.4025H58.6655C58.6655 49.4025 66.5899 64.7001 69.8857 75.3699C76.7114 97.4675 58.6655 131.328 58.6655 131.328H57.2246C57.2246 131.328 75.2705 97.4675 68.4448 75.3699Z" stroke="white" stroke-opacity="0.8" stroke-width="0.5"/>
<path id="Vector 61" d="M66.7195 67.1048C66.7195 67.1048 72.4963 63.0474 75.0767 59.4886C78.0821 55.3439 80.264 47.1381 80.264 47.1381L79.2759 46.5206C79.2759 46.5206 77.094 54.7264 74.0887 58.8711M71.3716 89.9534C71.3716 89.9534 78.0769 84.2205 80.511 79.2495C83.4339 73.2801 85.4512 62.3704 85.4512 62.3704H84.4632C84.4632 62.3704 82.5981 73.3427 79.2759 79.2495M66.2815 65.7842C66.2815 65.7842 71.8524 61.9326 74.4329 58.3738M71.3716 88.7183C71.3716 88.7183 76.8955 83.4562 79.6087 78.632" stroke="white" stroke-opacity="0.8" stroke-width="0.5"/>
<path id="Vector 62" d="M59.6952 54.7543C59.6952 54.7543 55.1667 55.8521 51.8732 54.7543C47.5565 53.3155 43.2278 45.6973 43.2278 45.6973L44.4628 45.2856C44.4628 45.2856 48.0895 51.5519 52.2849 53.3135C55.1013 54.4961 59.2835 53.5193 59.2835 53.5193M69.5756 80.6905C69.5756 80.6905 61.472 79.6911 57.2251 76.9854C51.3931 73.2697 46.933 62.5764 46.933 62.5764L45.9038 63.6056C45.9038 63.6056 50.3639 74.2989 56.1959 78.0146C60.4428 80.7203 69.5756 82.1314 69.5756 82.1314" stroke="white" stroke-opacity="0.8" stroke-width="0.5"/>
</g>
</svg>
