<svg width="199" height="205" viewBox="0 0 199 205" fill="none" xmlns="http://www.w3.org/2000/svg">
<g id="Group 34">
<ellipse id="Ellipse 23" cx="95.9407" cy="100.098" rx="74.514" ry="60.1229" transform="rotate(79.416 95.9407 100.098)" fill="#3FCC7C"/>
<path id="Vector 50" d="M93.6329 23.4947C126.399 22.4872 155.635 42.6347 159.799 75.1505C164.08 108.586 146.537 173.679 104.879 176.671C63.2204 179.662 55.9078 158.12 43.6262 129.16C27.7855 91.8077 53.0797 24.7416 93.6329 23.4947Z" stroke="white"/>
<path id="Vector 60" d="M106.337 117.097C101.216 100.52 88.9049 76.7529 88.9049 76.7529H91.1435C91.1435 76.7529 103.455 100.52 108.576 117.097C119.18 151.428 91.1435 204.034 91.1435 204.034H88.9049C88.9049 204.034 116.941 151.428 106.337 117.097Z" stroke="white" stroke-opacity="0.8" stroke-width="0.5"/>
<path id="Vector 61" d="M103.657 104.256C103.657 104.256 112.632 97.9524 116.641 92.4235C121.31 85.9842 124.7 73.2354 124.7 73.2354L123.165 72.276C123.165 72.276 119.775 85.0248 115.106 91.4641M110.885 139.754C110.885 139.754 121.302 130.848 125.084 123.125C129.625 113.85 132.759 96.9007 132.759 96.9007H131.224C131.224 96.9007 128.326 113.948 123.165 123.125M102.977 102.204C102.977 102.204 111.632 96.2204 115.641 90.6915M110.885 137.835C110.885 137.835 119.467 129.66 123.682 122.165" stroke="white" stroke-opacity="0.8" stroke-width="0.5"/>
<path id="Vector 62" d="M92.743 85.0682C92.743 85.0682 85.7074 86.7738 80.5905 85.0682C73.884 82.8327 67.1588 70.9969 67.1588 70.9969L69.0776 70.3573C69.0776 70.3573 74.7121 80.0928 81.2301 82.8296C85.6059 84.667 92.1034 83.1494 92.1034 83.1494M108.094 125.363C108.094 125.363 95.5034 123.811 88.9054 119.607C79.8446 113.834 72.9153 97.2207 72.9153 97.2207L71.3163 98.8197C71.3163 98.8197 78.2456 115.433 87.3064 121.206C93.9045 125.41 108.094 127.602 108.094 127.602" stroke="white" stroke-opacity="0.8" stroke-width="0.5"/>
</g>
</svg>
