<svg width="329" height="354" viewBox="0 0 329 354" fill="none" xmlns="http://www.w3.org/2000/svg">
<path d="M56.8899 271.182V293H54.8977V271.182H56.8899Z" fill="#AEAEAE"/>
<path d="M86.2358 327H77.2124V301.545H86.3104C88.8707 301.545 91.0748 302.055 92.9226 303.074C94.7704 304.085 96.1914 305.539 97.1857 307.437C98.1883 309.334 98.6896 311.605 98.6896 314.248C98.6896 316.899 98.1883 319.178 97.1857 321.084C96.1914 322.99 94.7621 324.452 92.8977 325.471C91.0417 326.49 88.821 327 86.2358 327ZM82.5941 322.389H86.0121C87.603 322.389 88.9412 322.107 90.0266 321.544C91.1204 320.972 91.9407 320.089 92.4876 318.896C93.0427 317.695 93.3203 316.145 93.3203 314.248C93.3203 312.367 93.0427 310.83 92.4876 309.637C91.9407 308.444 91.1245 307.565 90.0391 307.002C88.9536 306.438 87.6154 306.157 86.0245 306.157H82.5941V322.389ZM102.151 327V301.545H112.194C114.116 301.545 115.757 301.889 117.116 302.577C118.483 303.257 119.523 304.222 120.235 305.473C120.956 306.716 121.317 308.178 121.317 309.86C121.317 311.551 120.952 313.005 120.223 314.223C119.494 315.433 118.437 316.361 117.054 317.007C115.678 317.653 114.013 317.977 112.057 317.977H105.333V313.651H111.187C112.215 313.651 113.068 313.51 113.747 313.229C114.427 312.947 114.932 312.524 115.264 311.961C115.604 311.397 115.773 310.697 115.773 309.86C115.773 309.015 115.604 308.303 115.264 307.723C114.932 307.143 114.423 306.703 113.735 306.405C113.056 306.099 112.198 305.945 111.162 305.945H107.533V327H102.151ZM115.898 315.416L122.224 327H116.283L110.093 315.416H115.898ZM129.977 301.545V327H124.595V301.545H129.977ZM155.17 301.545V327H150.522L139.448 310.979H139.261V327H133.88V301.545H138.603L149.59 317.554H149.813V301.545H155.17ZM159.092 327V301.545H164.474V312.769H164.809L173.969 301.545H180.42L170.974 312.943L180.532 327H174.094L167.121 316.535L164.474 319.766V327H159.092ZM194.723 319.369V318.946C194.731 317.496 194.86 316.34 195.108 315.478C195.365 314.617 195.738 313.921 196.227 313.39C196.716 312.86 197.304 312.379 197.992 311.949C198.505 311.617 198.965 311.273 199.371 310.917C199.777 310.561 200.1 310.167 200.341 309.736C200.581 309.297 200.701 308.808 200.701 308.27C200.701 307.698 200.564 307.196 200.291 306.766C200.018 306.335 199.649 306.003 199.185 305.771C198.729 305.539 198.224 305.423 197.669 305.423C197.13 305.423 196.62 305.543 196.14 305.784C195.659 306.016 195.266 306.364 194.959 306.828C194.652 307.283 194.487 307.851 194.462 308.531H189.391C189.432 306.873 189.83 305.506 190.584 304.429C191.338 303.344 192.337 302.536 193.579 302.005C194.822 301.467 196.194 301.197 197.693 301.197C199.342 301.197 200.801 301.471 202.068 302.018C203.336 302.556 204.33 303.339 205.051 304.367C205.772 305.394 206.133 306.633 206.133 308.083C206.133 309.053 205.971 309.914 205.648 310.668C205.333 311.414 204.89 312.077 204.318 312.657C203.746 313.229 203.071 313.747 202.292 314.211C201.638 314.6 201.099 315.006 200.676 315.429C200.262 315.851 199.951 316.34 199.744 316.895C199.545 317.45 199.442 318.134 199.433 318.946V319.369H194.723ZM197.184 327.323C196.355 327.323 195.647 327.033 195.058 326.453C194.478 325.865 194.193 325.161 194.201 324.34C194.193 323.528 194.478 322.832 195.058 322.252C195.647 321.672 196.355 321.382 197.184 321.382C197.971 321.382 198.663 321.672 199.259 322.252C199.856 322.832 200.158 323.528 200.167 324.34C200.158 324.887 200.013 325.388 199.732 325.844C199.458 326.292 199.098 326.652 198.65 326.925C198.203 327.191 197.714 327.323 197.184 327.323Z" fill="#AEAEAE"/>
<path d="M205.744 141.637C205.624 140.422 205.087 139.456 204.136 138.739C203.184 138.022 201.987 137.663 200.545 137.663C199.53 137.663 198.635 137.837 197.861 138.185C197.094 138.533 196.49 139.016 196.05 139.634C195.616 140.245 195.4 140.941 195.4 141.722C195.4 142.297 195.524 142.801 195.773 143.235C196.021 143.668 196.355 144.041 196.774 144.353C197.2 144.659 197.669 144.921 198.18 145.142C198.699 145.362 199.221 145.546 199.746 145.696L202.048 146.356C202.744 146.548 203.44 146.793 204.136 147.091C204.832 147.389 205.467 147.766 206.043 148.22C206.625 148.668 207.09 149.218 207.438 149.872C207.793 150.518 207.971 151.296 207.971 152.205C207.971 153.37 207.669 154.417 207.065 155.348C206.462 156.278 205.595 157.017 204.466 157.563C203.337 158.103 201.984 158.373 200.407 158.373C198.923 158.373 197.634 158.128 196.54 157.638C195.446 157.141 194.587 156.455 193.962 155.582C193.337 154.708 192.985 153.696 192.907 152.546H194.952C195.023 153.405 195.308 154.133 195.805 154.73C196.302 155.326 196.948 155.781 197.744 156.093C198.539 156.399 199.427 156.551 200.407 156.551C201.494 156.551 202.46 156.37 203.305 156.008C204.157 155.639 204.825 155.127 205.308 154.474C205.798 153.813 206.043 153.046 206.043 152.173C206.043 151.434 205.851 150.816 205.467 150.319C205.084 149.815 204.548 149.392 203.859 149.051C203.177 148.71 202.385 148.409 201.483 148.146L198.873 147.379C197.161 146.867 195.833 146.161 194.888 145.259C193.944 144.357 193.472 143.206 193.472 141.807C193.472 140.635 193.784 139.605 194.409 138.718C195.041 137.823 195.893 137.127 196.966 136.63C198.045 136.125 199.256 135.873 200.599 135.873C201.955 135.873 203.156 136.122 204.2 136.619C205.244 137.116 206.071 137.801 206.682 138.675C207.3 139.541 207.63 140.529 207.673 141.637H205.744ZM212.315 158V136.182H214.307V146.186H226.686V136.182H228.679V158H226.686V147.975H214.307V158H212.315ZM251.9 147.091C251.9 149.364 251.496 151.342 250.686 153.025C249.876 154.701 248.761 156.001 247.341 156.924C245.927 157.84 244.301 158.299 242.462 158.299C240.622 158.299 238.992 157.84 237.572 156.924C236.158 156.001 235.047 154.701 234.237 153.025C233.435 151.342 233.033 149.364 233.033 147.091C233.033 144.818 233.435 142.844 234.237 141.168C235.047 139.485 236.162 138.185 237.582 137.269C239.003 136.345 240.629 135.884 242.462 135.884C244.301 135.884 245.927 136.345 247.341 137.269C248.761 138.185 249.876 139.485 250.686 141.168C251.496 142.844 251.9 144.818 251.9 147.091ZM249.962 147.091C249.962 145.138 249.635 143.465 248.981 142.073C248.328 140.674 247.437 139.605 246.307 138.867C245.178 138.128 243.896 137.759 242.462 137.759C241.034 137.759 239.756 138.128 238.626 138.867C237.497 139.605 236.602 140.671 235.942 142.063C235.288 143.455 234.962 145.131 234.962 147.091C234.962 149.044 235.288 150.717 235.942 152.109C236.595 153.501 237.486 154.57 238.616 155.316C239.745 156.054 241.027 156.424 242.462 156.424C243.896 156.424 245.178 156.054 246.307 155.316C247.444 154.577 248.339 153.512 248.992 152.12C249.645 150.72 249.969 149.044 249.962 147.091ZM270.81 136.182H272.803V150.628C272.803 152.112 272.455 153.441 271.758 154.612C271.062 155.777 270.093 156.697 268.85 157.372C267.614 158.039 266.176 158.373 264.535 158.373C262.902 158.373 261.464 158.036 260.221 157.361C258.978 156.686 258.008 155.767 257.312 154.602C256.616 153.437 256.268 152.112 256.268 150.628V136.182H258.261V150.49C258.261 151.647 258.52 152.681 259.038 153.59C259.557 154.492 260.285 155.202 261.222 155.72C262.167 156.239 263.271 156.498 264.535 156.498C265.8 156.498 266.904 156.239 267.849 155.72C268.793 155.202 269.521 154.492 270.033 153.59C270.551 152.681 270.81 151.647 270.81 150.49V136.182ZM278.143 158V136.182H280.135V156.21H290.533V158H278.143ZM300.96 158H294.568V136.182H301.343C303.424 136.182 305.203 136.615 306.681 137.482C308.165 138.348 309.301 139.591 310.09 141.21C310.878 142.83 311.272 144.772 311.272 147.038C311.272 149.325 310.867 151.289 310.058 152.929C309.255 154.563 308.083 155.816 306.542 156.69C305.008 157.563 303.147 158 300.96 158ZM296.56 156.21H300.843C302.718 156.21 304.287 155.841 305.551 155.103C306.816 154.364 307.764 153.309 308.396 151.938C309.028 150.568 309.344 148.934 309.344 147.038C309.337 145.156 309.024 143.536 308.406 142.18C307.796 140.823 306.887 139.783 305.679 139.058C304.479 138.334 302.994 137.972 301.226 137.972H296.56V156.21Z" fill="#AEAEAE"/>
<path d="M41.706 100L34.7457 74.5455H37.8778L43.1974 95.277H43.446L48.8651 74.5455H52.3452L57.7642 95.277H58.0128L63.3324 74.5455H66.4645L59.5043 100H56.3224L50.7045 79.7159H50.5057L44.8878 100H41.706ZM69.78 100V74.5455H72.8624V85.8807H86.4349V74.5455H89.5173V100H86.4349V88.6151H72.8624V100H69.78ZM96.2073 100H92.9757L102.322 74.5455H105.504L114.851 100H111.619L104.013 78.5724H103.814L96.2073 100ZM97.4005 90.0568H110.426V92.7912H97.4005V90.0568ZM113.925 77.2798V74.5455H133.016V77.2798H125.012V100H121.929V77.2798H113.925Z" fill="#AEAEAE"/>
<ellipse cx="176.779" cy="84.3051" rx="58.0782" ry="46.8614" transform="rotate(79.416 176.779 84.3051)" fill="#3FCC7C"/>
<path d="M174.98 24.5983C200.519 23.813 223.306 39.5165 226.551 64.8602C229.889 90.9206 216.215 141.656 183.745 143.988C151.276 146.32 145.576 129.529 136.003 106.957C123.657 77.8433 143.372 25.5701 174.98 24.5983Z" stroke="white"/>
<path d="M184.882 97.5541C180.891 84.6336 171.295 66.1092 171.295 66.1092H173.04C173.04 66.1092 182.636 84.6336 186.627 97.5541C194.892 124.313 173.04 165.316 173.04 165.316H171.295C171.295 165.316 193.147 124.313 184.882 97.5541Z" stroke="white" stroke-opacity="0.8" stroke-width="0.5"/>
<path d="M182.793 87.5459C182.793 87.5459 189.788 82.6325 192.913 78.3231C196.552 73.3042 199.195 63.3674 199.195 63.3674L197.998 62.6196C197.998 62.6196 195.356 72.5564 191.717 77.5754M188.426 115.214C188.426 115.214 196.546 108.272 199.494 102.252C203.033 95.0237 205.476 81.8128 205.476 81.8128H204.28C204.28 81.8128 202.021 95.0995 197.998 102.252M182.263 85.9466C182.263 85.9466 189.009 81.2826 192.133 76.9732M188.426 113.718C188.426 113.718 195.116 107.346 198.401 101.505" stroke="white" stroke-opacity="0.8" stroke-width="0.5"/>
<path d="M174.286 72.5902C174.286 72.5902 168.802 73.9195 164.814 72.5902C159.587 70.8478 154.345 61.6227 154.345 61.6227L155.841 61.1241C155.841 61.1241 160.232 68.7122 165.313 70.8454C168.723 72.2774 173.788 71.0946 173.788 71.0946M186.251 103.997C186.251 103.997 176.438 102.787 171.295 99.5106C164.233 95.0111 158.832 82.0622 158.832 82.0622L157.586 83.3085C157.586 83.3085 162.987 96.2574 170.049 100.757C175.192 104.033 186.251 105.742 186.251 105.742" stroke="white" stroke-opacity="0.8" stroke-width="0.5"/>
<ellipse cx="229.003" cy="230.362" rx="65.2171" ry="50.8748" transform="rotate(-13.3636 229.003 230.362)" fill="#DF5A21"/>
<path d="M164.692 233.507C164.496 205.769 182.125 181.441 209.715 178.569C238.085 175.617 292.799 191.761 294.495 227.061C296.192 262.362 277.822 268.116 253.077 277.926C221.162 290.578 164.935 267.838 164.692 233.507Z" fill="#DF5A21" stroke="white"/>
<path d="M226.657 232.081L209.539 233.654V232.081L226.657 230.507L238.931 226.731L246.883 221.538L248.098 222.559L239.9 227.99L226.657 232.081Z" fill="#DF5A21" stroke="white" stroke-opacity="0.8" stroke-width="0.5"/>
<circle cx="82.1382" cy="193.56" r="59.1382" fill="#FFCC00"/>
<circle cx="40.0648" cy="155.605" r="8.8266" fill="#FFCC00"/>
<circle cx="125.977" cy="230.337" r="8.8266" fill="#FFCC00"/>
<path d="M47.1248 234.457C24.8453 214.13 18.4501 182.096 36.5329 157.959C55.1271 133.14 75.3699 119.122 115.384 148.544C155.398 177.966 151.72 190.991 141.275 217.98C127.803 252.791 74.6993 259.615 47.1248 234.457Z" stroke="white"/>
<path d="M81.2768 149.268C80.633 148.657 80.4482 147.695 80.9707 146.97C81.508 146.225 82.0929 145.804 83.2491 146.688C84.4052 147.571 84.299 147.962 83.9972 148.773C83.6079 149.819 82.0735 150.023 81.2768 149.268Z" stroke="white" stroke-opacity="0.8" stroke-width="0.5"/>
<path d="M95.3985 158.683C94.7547 158.072 94.57 157.11 95.0924 156.385C95.6297 155.64 96.2146 155.219 97.3708 156.103C98.5269 156.986 98.4207 157.377 98.1189 158.188C97.7296 159.234 96.1952 159.439 95.3985 158.683Z" stroke="white" stroke-opacity="0.8" stroke-width="0.5"/>
<path d="M91.8683 149.268C91.2245 148.657 91.0398 147.695 91.5622 146.97C92.0995 146.225 92.6844 145.804 93.8406 146.688C94.9967 147.571 94.8905 147.962 94.5887 148.773C94.1994 149.819 92.665 150.023 91.8683 149.268Z" stroke="white" stroke-opacity="0.8" stroke-width="0.5"/>
<rect width="329" height="354" rx="31" transform="matrix(1 0 0 -1 0 354)" fill="white" fill-opacity="0.05"/>
</svg>
