<svg width="12" height="15" viewBox="0 0 12 15" fill="none" xmlns="http://www.w3.org/2000/svg">
<g id="Group 79">
<path id="Vector" d="M11.9272 4.9395C11.8917 4.8581 11.8419 4.78369 11.7803 4.71975L7.28025 0.21975C7.21631 0.158087 7.1419 0.108309 7.0605 0.0727499C7.038 0.0622499 7.014 0.0562499 6.99 0.0479999C6.92725 0.0266446 6.86192 0.0137806 6.79575 0.00975001C6.78 0.00825001 6.76575 0 6.75 0H1.5C0.67275 0 0 0.67275 0 1.5V13.5C0 14.3273 0.67275 15 1.5 15H10.5C11.3273 15 12 14.3273 12 13.5V5.25C12 5.23425 11.9917 5.22 11.9902 5.2035C11.9866 5.13729 11.9737 5.07191 11.952 5.00925C11.9445 4.98525 11.9377 4.962 11.9272 4.9395ZM9.4395 4.5H7.5V2.5605L9.4395 4.5ZM1.5 13.5V1.5H6V5.25C6 5.44891 6.07902 5.63968 6.21967 5.78033C6.36032 5.92098 6.55109 6 6.75 6H10.5L10.5015 13.5H1.5Z" fill="#DF5A21"/>
<path id="Vector_2" d="M3 7.5H9V9H3V7.5ZM3 10.5H9V12H3V10.5ZM3 4.5H4.5V6H3V4.5Z" fill="#DF5A21"/>
</g>
</svg>
