<svg width="245" height="233" viewBox="0 0 245 233" fill="none" xmlns="http://www.w3.org/2000/svg">
<g id="Group 64">
<g id="Group 49">
<path id="Ellipse 26" d="M231.675 46.785C231.675 69.9234 212.919 88.6808 189.782 88.6808C166.645 88.6808 151.126 71.4496 151.126 48.3112C153.792 35.1749 163.775 46.4288 184.831 33.2679C205.887 20.1069 231.675 23.6466 231.675 46.785Z" fill="#5AC8FA"/>
<path id="Vector 64" d="M173.28 19.7129C173.432 18.3419 173.278 11.144 177.087 9.62052C180.895 8.09703 207.365 10.3823 214.411 9.6205C221.457 8.85869 214.411 19.7129 214.411 19.7129M173.28 19.7129C189.549 20.5405 198.784 21.455 214.411 19.7129M173.28 19.7129C173.28 19.7129 167.947 19.7129 161.091 29.6149M214.411 19.7129C207.621 23.7044 205.226 25.8759 203.747 29.6149M214.411 19.7129C216.312 23.9738 220.884 24.8544 220.884 29.6149M161.091 29.6149C176.325 37.2319 203.747 29.6149 203.747 29.6149M161.091 29.6149C161.091 29.6149 150.238 72.2694 161.092 79.1247C171.945 85.9801 186.609 83.7137 203.747 79.1247M203.747 29.6149C203.747 29.6149 220.313 35.8989 220.884 29.6149M203.747 29.6149C200.51 42.9446 203.747 59.7899 203.747 79.1247M220.884 29.6149C220.884 29.6149 226.406 73.9835 220.884 77.7919C215.362 81.6002 210.031 75.6972 203.747 79.1247" stroke="white"/>
</g>
<g id="Group 44">
<g id="Group 19">
<ellipse id="Ellipse 23" cx="56.6362" cy="56.8776" rx="43.9696" ry="34.3" transform="rotate(-13.3636 56.6362 56.8776)" fill="#DF5A21"/>
<path id="Vector 50" d="M13.2764 58.9978C13.1441 40.2966 25.0297 23.8942 43.6309 21.9583C62.7582 19.9676 99.6467 30.8519 100.79 54.6517C101.934 78.4515 89.549 82.3313 72.8662 88.945C51.349 97.4753 13.4401 82.1437 13.2764 58.9978Z" fill="#DF5A21" stroke="white"/>
<path id="Vector 51" d="M55.0542 58.0357L43.513 59.0964V58.0357L55.0542 56.975L63.3291 54.4292L68.6906 50.9276L69.5095 51.6161L63.9823 55.2778L55.0542 58.0357Z" fill="#DF5A21" stroke="white" stroke-opacity="0.8" stroke-width="0.5"/>
</g>
</g>
<g id="Group 47">
<ellipse id="Ellipse 23_2" cx="189.736" cy="177.081" rx="39.6077" ry="31.9582" transform="rotate(79.416 189.736 177.081)" fill="#3FCC7C"/>
<path id="Vector 50_2" d="M188.509 136.363C205.926 135.827 221.466 146.536 223.679 163.82C225.955 181.593 216.63 216.193 194.487 217.783C172.343 219.373 168.456 207.922 161.928 192.529C153.508 172.674 166.953 137.025 188.509 136.363Z" stroke="white"/>
<path id="Vector 60" d="M195.262 186.116C192.541 177.305 185.996 164.672 185.996 164.672H187.186C187.186 164.672 193.73 177.305 196.452 186.116C202.089 204.365 187.186 232.328 187.186 232.328H185.996C185.996 232.328 200.899 204.365 195.262 186.116Z" stroke="white" stroke-opacity="0.8" stroke-width="0.5"/>
<path id="Vector 61" d="M193.837 179.291C193.837 179.291 198.608 175.94 200.739 173.001C203.221 169.578 205.023 162.802 205.023 162.802L204.207 162.292C204.207 162.292 202.405 169.068 199.923 172.491M197.679 198.16C197.679 198.16 203.217 193.425 205.227 189.32C207.641 184.39 209.307 175.381 209.307 175.381H208.491C208.491 175.381 206.95 184.442 204.207 189.32M193.476 178.2C193.476 178.2 198.076 175.019 200.207 172.08M197.679 197.14C197.679 197.14 202.241 192.794 204.482 188.81" stroke="white" stroke-opacity="0.8" stroke-width="0.5"/>
<path id="Vector 62" d="M188.037 169.091C188.037 169.091 184.297 169.998 181.577 169.091C178.012 167.903 174.438 161.612 174.438 161.612L175.457 161.272C175.457 161.272 178.452 166.447 181.917 167.901C184.243 168.878 187.697 168.071 187.697 168.071M196.196 190.51C196.196 190.51 189.504 189.685 185.997 187.45C181.181 184.382 177.497 175.551 177.497 175.551L176.647 176.401C176.647 176.401 180.331 185.232 185.147 188.3C188.654 190.535 196.196 191.7 196.196 191.7" stroke="white" stroke-opacity="0.8" stroke-width="0.5"/>
</g>
<g id="Group 34">
<circle id="Ellipse 20" cx="57.8756" cy="192.426" r="38.8816" fill="#FFCC00"/>
<circle id="Ellipse 21" cx="30.2136" cy="167.472" r="5.80322" fill="#FFCC00"/>
<circle id="Ellipse 22" cx="86.6985" cy="216.606" r="5.80322" fill="#FFCC00"/>
<path id="Vector 46" d="M34.8554 219.314C20.2073 205.95 16.0026 184.889 27.8915 169.02C40.1166 152.702 53.4257 143.485 79.7336 162.829C106.042 182.174 103.624 190.737 96.7564 208.481C87.8991 231.369 52.9848 235.855 34.8554 219.314Z" stroke="white"/>
<path id="Vector 47" d="M57.3092 163.305C56.886 162.904 56.7645 162.271 57.108 161.794C57.4612 161.304 57.8458 161.028 58.6059 161.609C59.3661 162.19 59.2962 162.447 59.0978 162.98C58.8419 163.667 57.833 163.802 57.3092 163.305Z" stroke="white" stroke-opacity="0.8" stroke-width="0.5"/>
<path id="Vector 48" d="M66.5938 169.495C66.1706 169.094 66.0491 168.461 66.3926 167.985C66.7458 167.495 67.1304 167.218 67.8905 167.799C68.6507 168.38 68.5808 168.637 68.3824 169.17C68.1265 169.857 67.1176 169.992 66.5938 169.495Z" stroke="white" stroke-opacity="0.8" stroke-width="0.5"/>
<path id="Vector 49" d="M64.2728 163.305C63.8496 162.904 63.7281 162.271 64.0716 161.794C64.4248 161.304 64.8094 161.028 65.5695 161.609C66.3297 162.19 66.2598 162.447 66.0614 162.98C65.8055 163.667 64.7967 163.802 64.2728 163.305Z" stroke="white" stroke-opacity="0.8" stroke-width="0.5"/>
</g>
</g>
</svg>
