<svg width="116" height="116" viewBox="0 0 116 116" fill="none" xmlns="http://www.w3.org/2000/svg">
<g id="Group 44">
<g id="Group 19">
<path id="Ellipse 23" d="M100.824 47.5492C105.231 66.0989 89.5236 85.8175 65.5793 91.5058C41.635 97.1941 18.7373 86.6466 14.3306 68.097C9.9239 49.5473 25.6315 29.8287 49.5758 24.1404C73.5201 18.4521 96.4177 28.9996 100.824 47.5492Z" fill="#DF5A21" stroke="white" stroke-width="0.5"/>
<path id="Vector 50" d="M13.497 59.9785C13.3625 40.9664 25.4456 24.2914 44.356 22.3233C63.8013 20.2995 101.303 31.3647 102.466 55.5601C103.629 79.7555 91.0374 83.6999 74.0773 90.4235C52.2024 99.0956 13.6634 83.5091 13.497 59.9785Z" fill="#DF5A21" stroke="white"/>
<path id="Vector 51" d="M55.9696 59.0001L44.2366 60.0785V59.0001L55.9696 57.9217L64.382 55.3337L69.8327 51.7738L70.6652 52.4738L65.0462 56.1963L55.9696 59.0001Z" fill="#DF5A21" stroke="white" stroke-opacity="0.8" stroke-width="0.5"/>
</g>
</g>
</svg>
