<svg width="128" height="132" viewBox="0 0 128 132" fill="none" xmlns="http://www.w3.org/2000/svg">
<ellipse cx="61.7532" cy="64.4288" rx="47.9613" ry="38.6984" transform="rotate(79.416 61.7532 64.4288)" fill="#3FCC7C"/>
<path d="M60.2673 15.1225C81.3572 14.4741 100.175 27.4421 102.855 48.3711C105.611 69.892 94.3195 111.79 67.5058 113.715C40.6921 115.641 35.9853 101.775 28.0802 83.1346C17.8843 59.0926 34.165 15.9251 60.2673 15.1225Z" stroke="white"/>
<path d="M68.4448 75.3699C65.149 64.7 57.2246 49.4025 57.2246 49.4025H58.6655C58.6655 49.4025 66.5899 64.7 69.8857 75.3699C76.7114 97.4674 58.6655 131.328 58.6655 131.328H57.2246C57.2246 131.328 75.2705 97.4674 68.4448 75.3699Z" stroke="white" stroke-opacity="0.8" stroke-width="0.5"/>
<path d="M66.7195 67.1048C66.7195 67.1048 72.4963 63.0473 75.0767 59.4886C78.0821 55.3439 80.264 47.138 80.264 47.138L79.2759 46.5205C79.2759 46.5205 77.094 54.7264 74.0887 58.8711M71.3716 89.9533C71.3716 89.9533 78.0769 84.2204 80.511 79.2495C83.4339 73.2801 85.4512 62.3704 85.4512 62.3704H84.4632C84.4632 62.3704 82.5981 73.3426 79.2759 79.2495M66.2815 65.7841C66.2815 65.7841 71.8524 61.9325 74.4329 58.3738M71.3716 88.7182C71.3716 88.7182 76.8955 83.4562 79.6087 78.632" stroke="white" stroke-opacity="0.8" stroke-width="0.5"/>
<path d="M59.6953 54.7543C59.6953 54.7543 55.1668 55.8521 51.8733 54.7543C47.5566 53.3154 43.2279 45.6972 43.2279 45.6972L44.463 45.2855C44.463 45.2855 48.0896 51.5518 52.285 53.3134C55.1015 54.496 59.2836 53.5192 59.2836 53.5192M69.5758 80.6905C69.5758 80.6905 61.4721 79.6911 57.2252 76.9853C51.3932 73.2697 46.9331 62.5763 46.9331 62.5763L45.9039 63.6055C45.9039 63.6055 50.364 74.2988 56.196 78.0145C60.4429 80.7202 69.5758 82.1314 69.5758 82.1314" stroke="white" stroke-opacity="0.8" stroke-width="0.5"/>
</svg>
