<svg width="214" height="207" viewBox="0 0 214 207" fill="none" xmlns="http://www.w3.org/2000/svg">
<circle cx="100.5" cy="106.068" r="100.5" fill="#FFCC00"/>
<circle cx="29" cy="41.5685" r="15" fill="#FFCC00"/>
<circle cx="175" cy="168.568" r="15" fill="#FFCC00"/>
<path d="M40.9984 175.568C3.13648 141.024 -7.7317 86.5865 22.9984 45.5684C54.5975 3.39032 88.9983 -20.4316 156.998 29.5684C224.998 79.5684 218.749 101.702 200.998 147.568C178.104 206.726 87.8587 218.322 40.9984 175.568Z" stroke="white" stroke-width="2"/>
<path d="M99.0357 30.798C97.9417 29.7605 97.6277 28.1255 98.5156 26.8935C99.4286 25.6267 100.423 24.9112 102.387 26.4129C104.352 27.9147 104.172 28.5794 103.659 29.957C102.997 31.7338 100.39 32.0821 99.0357 30.798Z" stroke="white" stroke-opacity="0.8"/>
<path d="M123.036 46.798C121.942 45.7605 121.628 44.1255 122.516 42.8935C123.429 41.6267 124.423 40.9112 126.387 42.4129C128.352 43.9147 128.172 44.5794 127.659 45.957C126.997 47.7338 124.39 48.0821 123.036 46.798Z" stroke="white" stroke-opacity="0.8"/>
<path d="M117.036 30.798C115.942 29.7605 115.628 28.1255 116.516 26.8935C117.429 25.6267 118.423 24.9112 120.387 26.4129C122.352 27.9147 122.172 28.5794 121.659 29.957C120.997 31.7338 118.39 32.0821 117.036 30.798Z" stroke="white" stroke-opacity="0.8"/>
</svg>
