<svg width="103" height="99" viewBox="0 0 103 99" fill="none" xmlns="http://www.w3.org/2000/svg">
<circle cx="47.987" cy="50.9521" r="47.987" fill="#FFCC00"/>
<circle cx="13.8469" cy="20.1544" r="7.16224" fill="#FFCC00"/>
<circle cx="83.5595" cy="80.7948" r="7.16224" fill="#FFCC00"/>
<path d="M19.576 84.1373C1.49757 67.6431 -3.6918 41.65 10.9813 22.0645C26.0693 1.92521 42.4952 -9.44934 74.964 14.4248C107.433 38.299 104.449 48.8674 95.9732 70.7678C85.0417 99.0147 41.951 104.552 19.576 84.1373Z" stroke="white" stroke-width="2"/>
<path d="M47.2879 15.0119C46.7655 14.5165 46.6156 13.7358 47.0395 13.1476C47.4755 12.5427 47.9501 12.201 48.8883 12.9181C49.8264 13.6352 49.7402 13.9526 49.4953 14.6103C49.1794 15.4587 47.9344 15.625 47.2879 15.0119Z" stroke="white" stroke-opacity="0.8"/>
<path d="M58.7475 22.6515C58.2251 22.1561 58.0752 21.3755 58.4991 20.7872C58.9351 20.1823 59.4097 19.8407 60.3478 20.5578C61.286 21.2748 61.1998 21.5922 60.9549 22.25C60.639 23.0984 59.394 23.2647 58.7475 22.6515Z" stroke="white" stroke-opacity="0.8"/>
<path d="M55.8825 15.0119C55.3601 14.5165 55.2102 13.7358 55.6341 13.1476C56.0701 12.5427 56.5447 12.201 57.4829 12.9181C58.421 13.6352 58.3348 13.9526 58.0899 14.6103C57.774 15.4587 56.529 15.625 55.8825 15.0119Z" stroke="white" stroke-opacity="0.8"/>
</svg>
