<svg width="98" height="98" viewBox="0 0 98 98" fill="none" xmlns="http://www.w3.org/2000/svg">
<path d="M97.5371 46.6523C97.5371 74.6708 74.8252 97.3843 46.8086 97.3843C18.792 97.3843 0 76.5189 0 48.5004C3.22818 32.5936 15.3163 46.221 40.8134 30.2843C66.3105 14.3476 97.5371 18.6338 97.5371 46.6523Z" fill="#5AC8FA"/>
<path d="M26.8259 13.8705C27.0104 12.2103 26.8244 3.49436 31.4361 1.64955C36.0478 -0.195257 68.1006 2.57201 76.6322 1.64953C85.1638 0.727045 76.6322 13.8705 76.6322 13.8705M26.8259 13.8705C46.527 14.8727 57.709 15.98 76.6322 13.8705M26.8259 13.8705C26.8259 13.8705 20.368 13.8705 12.0671 25.8609M76.6322 13.8705C68.4105 18.7038 65.5099 21.3333 63.7194 25.8609M76.6322 13.8705C78.9342 19.0301 84.4706 20.0964 84.4706 25.8609M12.0671 25.8609C30.5138 35.0844 63.7194 25.8609 63.7194 25.8609M12.0671 25.8609C12.0671 25.8609 -1.07605 77.5117 12.0671 85.8128C25.2103 94.114 42.9667 91.3696 63.7194 85.8128M63.7194 25.8609C63.7194 25.8609 83.7788 33.4703 84.4706 25.8609M63.7194 25.8609C59.7993 42.0019 63.7194 62.4001 63.7194 85.8128M84.4706 25.8609C84.4706 25.8609 91.1574 79.5873 84.4706 84.1988C77.7838 88.8104 71.3286 81.6624 63.7194 85.8128" stroke="white"/>
</svg>
