<svg width="84" height="118" viewBox="0 0 84 118" fill="none" xmlns="http://www.w3.org/2000/svg">
<path d="M1.73992 62.9034C-7.0868 18.8963 19.8593 3.38393 33.4489 1.192C70.4239 -1.84283 79.0829 31.8791 80.7606 47.2227C83.5792 84.0472 60.8608 99.3233 46.5351 100.841C24.6221 103.162 5.08806 79.5961 1.73992 62.9034Z" fill="#3FCC7C"/>
<path d="M43.3313 0.761396L43.3643 0.765791L43.3975 0.765791C59.1984 0.76579 69.8974 8.36121 76.2482 19.0038C82.613 29.67 84.6147 43.4125 82.931 55.6431C81.245 67.891 76.6071 79.6218 69.5049 88.2794C62.4084 96.9302 52.8661 102.5 41.3333 102.5C18.2584 102.5 0.499998 80.5235 0.499998 55.7112C0.50001 42.4562 4.71809 27.8135 12.203 16.9383C19.6855 6.06641 30.3718 -0.968797 43.3313 0.761396Z" stroke="white"/>
<path d="M48.7154 61.7655C45.333 51.2382 37.2006 36.145 37.2006 36.145H38.6793C38.6793 36.145 46.8118 51.2382 50.1941 61.7655C57.199 83.5679 38.6793 116.976 38.6793 116.976H37.2006C37.2006 116.976 55.7203 83.5679 48.7154 61.7655Z" stroke="white" stroke-opacity="0.8" stroke-width="0.5"/>
<path d="M46.6412 53.9357C46.6412 53.9357 52.6215 49.7353 55.2929 46.0512C58.4041 41.7605 60.6628 33.2655 60.6628 33.2655L59.64 32.6262C59.64 32.6262 57.3812 41.1212 54.27 45.4119M51.4571 77.5892C51.4571 77.5892 58.3988 71.6544 60.9186 66.5083C63.9445 60.3286 66.0328 49.0345 66.0328 49.0345H65.01C65.01 49.0345 63.0792 60.3933 59.64 66.5083M46.1877 52.5685C46.1877 52.5685 51.9549 48.5812 54.6263 44.8971M51.4571 76.3107C51.4571 76.3107 57.1757 70.8632 59.9845 65.869" stroke="white" stroke-opacity="0.8" stroke-width="0.5"/>
<path d="M39.3696 41.1495C39.3696 41.1495 34.6815 42.286 31.272 41.1495C26.8032 39.66 22.322 31.7734 22.322 31.7734L23.6006 31.3472C23.6006 31.3472 27.355 37.8342 31.6982 39.6579C34.6139 40.8822 38.9434 39.871 38.9434 39.871M49.5982 67.9995C49.5982 67.9995 41.209 66.9649 36.8125 64.1638C30.775 60.3172 26.1577 49.2472 26.1577 49.2472L25.0923 50.3126C25.0923 50.3126 29.7095 61.3827 35.747 65.2293C40.1435 68.0303 49.5982 69.4912 49.5982 69.4912" stroke="white" stroke-opacity="0.8" stroke-width="0.5"/>
</svg>
