<svg width="110" height="88" viewBox="0 0 110 88" fill="none" xmlns="http://www.w3.org/2000/svg">
<path d="M50.9535 86.7219H50.9364L50.9193 86.7231C35.3101 87.7923 22.7054 83.5246 14.0102 76.1554C5.31526 68.7864 0.5 58.2931 0.5 46.8414C0.5 24.0318 25.0879 2.11316 61.2637 0.500001C88.882 0.504993 108.996 19.1367 108.996 41.9957C108.996 53.3723 101.455 64.5482 90.3642 72.9071C79.2838 81.258 64.7517 86.7219 50.9535 86.7219Z" fill="#DF5A21" stroke="white"/>
<path d="M108.814 45.9032L108.81 45.9357V45.9684C108.81 61.8453 99.8414 71.6837 87.689 77.582C75.5117 83.4924 60.1789 85.4162 47.6358 85.4162C22.7225 85.4162 2.5813 66.4703 2.5813 43.1651C2.5813 19.8702 22.7113 1.61475 47.6358 1.61475C60.1167 1.61475 76.3206 6.14122 88.9579 13.9795C101.613 21.829 110.527 32.8846 108.814 45.9032Z" fill="#DF5A21" stroke="white"/>
<path d="M52.8373 46.0963L38.5249 47.3703V46.0963L52.8373 44.8222L63.099 41.7645L69.748 37.5586L70.7635 38.3857L63.9092 42.7837L52.8373 46.0963Z" fill="#DF5A21" stroke="white" stroke-opacity="0.8" stroke-width="0.5"/>
</svg>
