<svg width="221" height="218" viewBox="0 0 221 218" fill="none" xmlns="http://www.w3.org/2000/svg">
<g id="Group 65">
<g id="Group 64">
<g id="Group 49">
<path id="Ellipse 26" d="M208.549 46.785C208.549 69.9234 189.793 88.6808 166.656 88.6808C143.519 88.6808 128 71.4496 128 48.3112C130.666 35.1749 140.649 46.4288 161.705 33.2678C182.761 20.1069 208.549 23.6466 208.549 46.785Z" fill="#5AC8FA"/>
<path id="Vector 64" d="M150.154 19.7129C150.306 18.3418 150.152 11.144 153.961 9.62049C157.769 8.097 184.239 10.3823 191.285 9.62047C198.331 8.85866 191.285 19.7129 191.285 19.7129M150.154 19.7129C166.423 20.5405 175.658 21.455 191.285 19.7129M150.154 19.7129C150.154 19.7129 144.82 19.7129 137.965 29.6148M191.285 19.7129C184.495 23.7043 182.1 25.8759 180.621 29.6148M191.285 19.7129C193.186 23.9738 197.758 24.8544 197.758 29.6148M137.965 29.6148C153.199 37.2319 180.621 29.6148 180.621 29.6148M137.965 29.6148C137.965 29.6148 127.111 72.2694 137.965 79.1247C148.819 85.98 163.483 83.7137 180.621 79.1247M180.621 29.6148C180.621 29.6148 197.187 35.8989 197.758 29.6148M180.621 29.6148C177.384 42.9446 180.621 59.7899 180.621 79.1247M197.758 29.6148C197.758 29.6148 203.28 73.9835 197.758 77.7919C192.236 81.6002 186.905 75.6972 180.621 79.1247" stroke="white"/>
</g>
<g id="Group 44">
<g id="Group 19">
<ellipse id="Ellipse 23" cx="56.6362" cy="56.8775" rx="43.9696" ry="34.3" transform="rotate(-13.3636 56.6362 56.8775)" fill="#DF5A21"/>
<path id="Vector 50" d="M13.2764 58.9978C13.1441 40.2966 25.0297 23.8942 43.6309 21.9583C62.7582 19.9676 99.6467 30.8519 100.79 54.6517C101.934 78.4515 89.549 82.3313 72.8662 88.945C51.349 97.4753 13.4401 82.1437 13.2764 58.9978Z" fill="#DF5A21" stroke="white"/>
<path id="Vector 51" d="M55.0542 58.0357L43.513 59.0965V58.0357L55.0542 56.975L63.3291 54.4292L68.6906 50.9276L69.5095 51.6162L63.9823 55.2778L55.0542 58.0357Z" fill="#DF5A21" stroke="white" stroke-opacity="0.8" stroke-width="0.5"/>
</g>
</g>
<g id="Group 47">
<ellipse id="Ellipse 23_2" cx="165.997" cy="162.207" rx="39.6077" ry="31.9582" transform="rotate(79.416 165.997 162.207)" fill="#3FCC7C"/>
<path id="Vector 50_2" d="M164.77 121.489C182.187 120.953 197.727 131.662 199.941 148.946C202.217 166.719 192.892 201.319 170.748 202.909C148.605 204.499 144.718 193.048 138.189 177.655C129.769 157.8 143.214 122.151 164.77 121.489Z" stroke="white"/>
<path id="Vector 60" d="M171.524 171.242C168.802 162.431 162.258 149.798 162.258 149.798H163.447C163.447 149.798 169.992 162.431 172.713 171.242C178.35 189.491 163.447 217.454 163.447 217.454H162.258C162.258 217.454 177.16 189.491 171.524 171.242Z" stroke="white" stroke-opacity="0.8" stroke-width="0.5"/>
<path id="Vector 61" d="M170.099 164.417C170.099 164.417 174.869 161.066 177 158.127C179.482 154.704 181.284 147.928 181.284 147.928L180.468 147.418C180.468 147.418 178.666 154.194 176.184 157.617M173.941 183.286C173.941 183.286 179.478 178.551 181.488 174.446C183.902 169.517 185.568 160.507 185.568 160.507H184.752C184.752 160.507 183.212 169.568 180.468 174.446M169.737 163.326C169.737 163.326 174.338 160.145 176.469 157.207M173.941 182.266C173.941 182.266 178.502 177.92 180.743 173.936" stroke="white" stroke-opacity="0.8" stroke-width="0.5"/>
<path id="Vector 62" d="M164.298 154.218C164.298 154.218 160.558 155.124 157.838 154.218C154.273 153.029 150.699 146.738 150.699 146.738L151.719 146.398C151.719 146.398 154.714 151.573 158.178 153.028C160.504 154.004 163.958 153.198 163.958 153.198M172.457 175.636C172.457 175.636 165.765 174.811 162.258 172.576C157.442 169.508 153.759 160.677 153.759 160.677L152.909 161.527C152.909 161.527 156.592 170.358 161.408 173.426C164.915 175.661 172.457 176.826 172.457 176.826" stroke="white" stroke-opacity="0.8" stroke-width="0.5"/>
</g>
<g id="Group 34">
<circle id="Ellipse 20" cx="57.8756" cy="164.474" r="38.8816" fill="#FFCC00"/>
<circle id="Ellipse 21" cx="30.2136" cy="139.52" r="5.80322" fill="#FFCC00"/>
<circle id="Ellipse 22" cx="86.6985" cy="188.654" r="5.80322" fill="#FFCC00"/>
<path id="Vector 46" d="M34.8554 191.362C20.2073 177.998 16.0026 156.937 27.8915 141.068C40.1166 124.75 53.4257 115.533 79.7336 134.877C106.042 154.221 103.624 162.785 96.7564 180.529C87.8991 203.417 52.9848 207.903 34.8554 191.362Z" stroke="white"/>
<path id="Vector 47" d="M57.3092 135.353C56.886 134.952 56.7645 134.319 57.108 133.842C57.4612 133.352 57.8458 133.076 58.6059 133.657C59.3661 134.238 59.2962 134.495 59.0978 135.028C58.8419 135.715 57.833 135.85 57.3092 135.353Z" stroke="white" stroke-opacity="0.8" stroke-width="0.5"/>
<path id="Vector 48" d="M66.5938 141.543C66.1706 141.142 66.0491 140.509 66.3926 140.033C66.7458 139.543 67.1304 139.266 67.8905 139.847C68.6507 140.428 68.5808 140.685 68.3824 141.218C68.1265 141.905 67.1176 142.04 66.5938 141.543Z" stroke="white" stroke-opacity="0.8" stroke-width="0.5"/>
<path id="Vector 49" d="M64.2728 135.353C63.8496 134.952 63.7281 134.319 64.0716 133.842C64.4248 133.352 64.8094 133.076 65.5695 133.657C66.3297 134.238 66.2598 134.495 66.0614 135.028C65.8055 135.715 64.7967 135.85 64.2728 135.353Z" stroke="white" stroke-opacity="0.8" stroke-width="0.5"/>
</g>
</g>
</g>
</svg>
