<svg width="21" height="21" viewBox="0 0 21 21" fill="none" xmlns="http://www.w3.org/2000/svg">
<g id="Group">
<path id="Vector" d="M20 10.5H17.889M17.889 10.5C17.889 12.4598 17.111 14.3389 15.7252 15.7247C14.3394 17.1105 12.4598 17.889 10.5 17.889M17.889 10.5C17.889 8.54018 17.111 6.66013 15.7252 5.27433C14.3394 3.88853 12.4598 3.111 10.5 3.111M10.5 1V3.111M10.5 3.111C8.54032 3.111 6.66089 3.88848 5.27519 5.27419C3.88948 6.65989 3.111 8.53931 3.111 10.499C3.111 12.4587 3.88948 14.3381 5.27519 15.7238C6.66089 17.1095 8.54032 17.889 10.5 17.889M1 10.5H3.111M10.5 20V17.889" stroke="#5AC8FA" stroke-width="1.5" stroke-miterlimit="10" stroke-linecap="round"/>
<path id="Vector_2" d="M10.5001 14.722C11.6198 14.722 12.6937 14.2772 13.4855 13.4854C14.2773 12.6936 14.7221 11.6197 14.7221 10.5C14.7221 9.38026 14.2773 8.30637 13.4855 7.5146C12.6937 6.72282 11.6198 6.278 10.5001 6.278C9.38033 6.278 8.30645 6.72282 7.51467 7.5146C6.72289 8.30637 6.27808 9.38026 6.27808 10.5C6.27808 11.6197 6.72289 12.6936 7.51467 13.4854C8.30645 14.2772 9.38033 14.722 10.5001 14.722Z" stroke="#5AC8FA" stroke-width="1.5" stroke-miterlimit="10" stroke-linecap="round"/>
</g>
</svg>
