<svg width="104" height="101" viewBox="0 0 104 101" fill="none" xmlns="http://www.w3.org/2000/svg">
<g id="Group 43">
<circle id="Ellipse 20" cx="48.6091" cy="51.5999" r="48.6091" fill="#FFCC00"/>
<circle id="Ellipse 21" cx="14.0266" cy="20.403" r="7.25509" fill="#FFCC00"/>
<circle id="Ellipse 22" cx="84.6425" cy="81.8293" r="7.25509" fill="#FFCC00"/>
<path id="Vector 46" d="M19.8297 85.215C1.51695 68.507 -3.73969 42.1769 11.1236 22.3376C26.4072 1.9372 43.046 -9.5848 75.9357 14.5988C108.825 38.7825 105.803 49.4879 97.2173 71.6722C86.1441 100.285 42.4948 105.894 19.8297 85.215Z" stroke="white"/>
<path id="Vector 47" d="M47.9008 15.1936C47.3717 14.6918 47.2198 13.9009 47.6493 13.3051C48.0909 12.6923 48.5717 12.3463 49.522 13.0726C50.4723 13.799 50.385 14.1205 50.1369 14.7868C49.8169 15.6462 48.5557 15.8147 47.9008 15.1936Z" stroke="white" stroke-opacity="0.8" stroke-width="0.5"/>
<path id="Vector 48" d="M59.5092 22.9323C58.9801 22.4304 58.8282 21.6396 59.2577 21.0438C59.6993 20.431 60.1801 20.085 61.1304 20.8113C62.0807 21.5377 61.9934 21.8592 61.7453 22.5255C61.4253 23.3849 60.1641 23.5534 59.5092 22.9323Z" stroke="white" stroke-opacity="0.8" stroke-width="0.5"/>
<path id="Vector 49" d="M56.6071 15.1936C56.078 14.6918 55.9261 13.9009 56.3556 13.3051C56.7972 12.6923 57.278 12.3463 58.2283 13.0726C59.1786 13.799 59.0913 14.1205 58.8432 14.7868C58.5232 15.6462 57.262 15.8147 56.6071 15.1936Z" stroke="white" stroke-opacity="0.8" stroke-width="0.5"/>
</g>
</svg>
